<svg width="135" height="135" viewBox="0 0 135 135" fill="none" xmlns="http://www.w3.org/2000/svg">
<path fill-rule="evenodd" clip-rule="evenodd" d="M59.2588 0.385044C43.5288 2.51694 30.4427 8.90259 19.6068 19.7343C9.6222 29.7145 3.32551 41.724 0.686836 55.8195C0.228586 58.2682 0.11441 60.0241 0.0257493 65.9861C-0.0430656 70.6113 0.0272961 74.0687 0.221885 75.6379C1.80231 88.384 6.99512 100.334 15.2645 110.254C26.1756 123.344 40.4572 131.417 57.4418 134.098C62.8163 134.946 71.6489 134.946 77.0234 134.098C87.4126 132.458 97.0781 128.696 105.056 123.187C116.83 115.056 125.625 103.869 130.49 90.8397C139.689 66.1977 133.66 38.5 115.05 19.9057C103.946 8.81225 90.8601 2.44487 74.887 0.363939C71.095 -0.130235 62.9797 -0.119167 59.2588 0.385044ZM73.9337 3.60181C81.7342 4.30729 89.8394 6.73749 97.1274 10.5555C115.223 20.0364 127.577 37.3639 130.776 57.7499C131.348 61.3993 131.549 69.4265 131.169 73.4733C129.799 88.0656 123.677 101.339 113.415 111.969C107.702 117.886 100.93 122.644 93.5214 125.946C73.4772 134.878 49.899 132.933 31.6654 120.844C24.5094 116.099 17.072 108.471 12.6828 101.376C2.27757 84.5552 0.108738 63.3824 6.92218 45.1381C12.572 30.01 23.7741 17.4276 37.993 10.2394C46.6106 5.88273 54.9784 3.7148 65.0419 3.23143C67.0517 3.13492 70.2375 3.26772 73.9337 3.60181ZM53.6284 28.0245C53.1629 28.3082 52.7111 28.7246 52.6245 28.9503C52.5377 29.1761 52.8325 31.422 53.2797 33.9412C53.7266 36.4608 54.0207 38.7085 53.933 38.9368C53.7103 39.5164 52.5817 39.7565 52.1508 39.3162C51.9598 39.1208 51.4923 37.1657 51.1119 34.9715C50.7315 32.7774 50.3428 30.8969 50.2477 30.7929C49.9655 30.4833 47.3807 32.3586 45.5827 34.1775C43.0095 36.7804 41.4172 40.1992 40.9943 44.0296C40.8211 45.596 40.7878 45.6557 40.0417 45.7371C39.0914 45.8408 37.9471 46.8804 37.7711 47.8C37.5811 48.7927 38.2056 50.0608 39.1162 50.5311C39.8201 50.8945 41.9141 50.9318 58.2032 50.87L75.5349 50.8042C76.1528 50.8019 76.7447 50.5556 77.1819 50.119V50.119C78.1801 49.1219 78.1736 47.6152 77.1669 46.5658C76.6927 46.0714 76.1576 45.7816 75.7198 45.7816C74.9636 45.7816 74.7167 45.2972 74.7105 43.8003C74.7053 42.6266 73.4994 38.9682 72.5831 37.3467C71.5074 35.4431 69.5215 33.3426 67.3746 31.8369C65.7671 30.7096 65.5437 30.6195 65.3756 31.0323C65.2715 31.2879 64.8955 33.1696 64.5398 35.214C64.1761 37.306 63.7315 39.093 63.523 39.3012C63.0447 39.7789 61.9238 39.5128 61.7586 38.8822C61.6908 38.6235 61.9692 36.5665 62.3772 34.3108C63.2805 29.3184 63.2607 28.8703 62.1042 28.0948C61.3032 27.5574 60.9408 27.5075 57.8516 27.5085C54.9284 27.5093 54.3611 27.5785 53.6284 28.0245ZM40.1695 57.8142C40.1685 62.5735 39.8198 65.5882 38.9038 68.7571C37.8765 72.3118 36.1012 75.2933 34.1888 76.6767C33.6409 77.0731 33.2839 77.4527 33.3955 77.5204C33.5071 77.5884 34.4102 77.4862 35.4025 77.2937C38.1548 76.7599 38.3976 76.8499 36.6912 77.7719C34.1842 79.126 32.9396 80.0865 30.8922 82.2472C28.8288 84.425 27.6048 86.2784 26.6159 88.7238C25.3875 91.7604 25.1014 93.3294 25.1058 97.0007C25.1094 99.9829 25.1908 100.676 25.6803 101.891C26.7236 104.48 28.9391 106.148 32.1997 106.799C34.1267 107.185 81.4873 107.189 83.4698 106.804C84.2494 106.652 85.6345 106.151 86.5477 105.69C89.7116 104.091 90.8211 101.494 90.6415 96.1081C90.5848 94.4044 90.4415 92.8542 90.3235 92.6632C90.1624 92.4033 89.6995 92.7206 88.4825 93.9249C87.5884 94.8101 86.7917 95.7928 86.7123 96.1086C86.4835 97.0192 83.6069 99.5256 82.5667 99.7204C80.9953 100.015 80.3546 99.6445 77.4958 96.7893C74.6368 93.9345 74.2661 93.2946 74.5607 91.7253C74.752 90.7079 77.3241 87.738 78.0208 87.7303C78.2535 87.7277 79.77 86.4768 81.3909 84.9505C84.6175 81.9119 84.7966 81.4826 82.9659 81.1737C81.1528 80.8677 78.9443 79.5797 77.5455 78.0125C76.16 76.4603 75.3932 74.7724 75.103 72.6376C74.9298 71.3615 74.9597 71.2694 75.8775 70.2548C76.646 69.4054 76.8028 69.0616 76.6811 68.4935C76.5979 68.1054 76.335 66.9191 76.0968 65.8574C75.8118 64.587 75.6102 62.1231 75.5074 58.6507L75.3989 54.9863C75.372 54.0766 74.6494 53.341 73.7404 53.2977V53.2977V53.2977C72.8633 53.2561 72.1295 53.9559 72.1295 54.8339V54.861C72.1295 57.3638 71.4022 61.0971 70.4138 63.6697C68.5741 68.4572 65.8545 71.8027 62.4284 73.4924C60.5068 74.4401 60.322 74.4797 57.8233 74.4797C55.3374 74.4797 55.1323 74.4365 53.2781 73.521C47.8436 70.8378 44.1515 64.0115 43.6 55.6265L43.5507 54.8785C43.4903 53.9599 42.7275 53.2457 41.8069 53.2457V53.2457V53.2457C40.9031 53.2457 40.1704 53.9782 40.1702 54.882L40.1695 57.8142ZM97.464 62.8332C95.042 65.1748 94.6557 65.8458 95.1681 66.8226C95.3722 67.2118 95.9526 67.927 96.4578 68.4119C97.3511 69.2695 97.39 69.2808 97.8908 68.8284C98.3913 68.3759 98.4124 68.3821 98.6696 69.0574C99.2251 70.5168 99.0191 71.0642 97.2585 72.8067C96.3371 73.7186 95.5833 74.5515 95.5833 74.6573C95.5833 74.7631 96.54 75.7705 97.7096 76.896L98.1018 77.2734C99.0699 78.2051 100.601 78.2046 101.569 77.2723V77.2723C102.977 75.9154 103.435 75.6179 104.013 75.6845C104.999 75.7985 105.328 76.8018 104.902 78.3945C104.581 79.5931 104.582 79.5962 105.489 80.503V80.503C105.995 81.0076 106.814 81.0127 107.33 80.5189V80.5189C109.615 78.3312 110.722 75.6614 110.404 73.1012C110.129 70.8836 109.651 70.0193 107.501 67.8544C105.826 66.1678 105.274 65.7797 103.904 65.3241C103.013 65.0281 102.284 64.7177 102.284 64.6341C102.284 64.5507 102.485 64.2609 102.73 63.9904C103.158 63.5178 103.124 63.4491 101.847 62.233C101.088 61.5095 100.278 60.9671 99.9565 60.9671C99.608 60.9671 98.6606 61.6765 97.464 62.8332ZM84.4969 63.9309V63.9309C84.0095 64.4332 84.0146 65.2335 84.5084 65.7295L85.6062 66.8324L86.5919 67.8225C87.2334 68.4669 87.5935 69.3391 87.5935 70.2483V70.2483C87.5935 71.6027 87.5368 71.7237 86.3605 72.8809C85.1951 74.027 85.0502 74.0936 83.7244 74.0936V74.0936C82.8257 74.0936 81.9634 73.7383 81.3257 73.105L80.3342 72.1205L79.1903 70.985C78.7068 70.505 77.9434 70.455 77.4015 70.8679V70.8679C76.5131 71.5445 76.4659 71.6518 76.618 72.6477C76.7071 73.2306 77.1311 74.4285 77.5605 75.3095C79.1656 78.6045 82.8438 80.4404 86.4912 79.7671V79.7671C87.4148 79.5967 88.3631 79.8906 89.0285 80.5533L96.2206 87.7161C101.742 93.2151 104.715 95.9961 105.199 96.1147C107.568 96.6946 109.759 95.1969 109.759 92.9981C109.759 92.3498 109.631 91.5663 109.474 91.2569C109.317 90.9478 105.549 87.0464 101.1 82.5872L94.1213 75.5917C93.4268 74.8956 93.1193 73.9022 93.2992 72.9354V72.9354C94.0606 68.8438 91.2995 64.4627 87.2868 63.3961C85.4523 62.9086 85.4976 62.8998 84.4969 63.9309ZM64.7975 76.3841C64.4581 77.0396 64.4571 77.1686 64.7893 77.4437C65.0888 77.6921 65.3416 77.6764 66.0066 77.3673C67.0127 76.8999 70.0677 76.5133 70.0677 76.8533C70.0677 76.9833 69.6483 77.5789 69.1357 78.1768C68.1259 79.355 66.0919 80.5032 63.8687 81.15V81.15C62.9651 81.4129 62.1918 82.0028 61.6995 82.8048L60.1738 85.2903C58.914 87.3426 57.8503 89.0218 57.8104 89.0218C57.7704 89.0218 56.7135 87.3429 55.4619 85.2911L53.9546 82.8203C53.4603 82.01 52.6804 81.4142 51.7686 81.1503V81.1503C49.665 80.5413 47.4626 79.2825 46.4655 78.1191C45.9801 77.5529 45.583 76.9833 45.583 76.8533C45.583 76.5133 48.6379 76.8999 49.6441 77.3673C50.7026 77.8591 51.4176 77.455 50.9691 76.6183C50.5516 75.8392 50.8065 75.8261 52.1204 76.5594C55.5346 78.465 60.1699 78.4287 63.663 76.4688C64.4215 76.0433 65.0738 75.6822 65.113 75.6665C65.1519 75.6508 65.0102 75.9738 64.7975 76.3841ZM86.9456 81.941C86.5224 82.126 84.6698 83.7949 82.8291 85.6496C80.9883 87.5043 79.3028 89.0218 79.0832 89.0218C78.8638 89.0218 78.0793 89.6336 77.3399 90.381C75.3597 92.3835 75.4223 92.6679 78.5226 95.7639C81.6105 98.8476 82.0141 98.9457 83.9964 97.0941C84.6989 96.4378 85.2739 95.7153 85.2739 95.4888C85.2739 95.2623 86.8399 93.51 88.7541 91.5949C91.158 89.1896 92.3114 87.8438 92.4843 87.242C92.7294 86.388 92.6925 86.328 90.6149 84.1987C89.4492 83.0039 88.3201 81.9317 88.1054 81.8156C87.8783 81.6928 87.3935 81.7451 86.9456 81.941ZM107.162 92.3323C107.525 93.0084 106.949 93.7296 106.138 93.6148C105.503 93.5247 105.211 92.9129 105.476 92.2241C105.682 91.6885 106.858 91.764 107.162 92.3323Z" fill="#FF8B00"/>
</svg>
